# xmcd
#
# Track frame offsets:
#	150
#	14106
#	25183
#	46766
#	62645
#	77105
#	91566
#	105608
#	116482
#	140719
#	153707
#	168415
#
# Disc length: 2439 seconds
#
# Revision: 1
# Processed by: cddbd v1.5.1PL0 Copyright (c) Steve Scherf et al.
# Submitted via: audiograbber 1.80
#
DISCID=9609850c
DTITLE=Steve Haggard - Mysterious Ways
DYEAR=1900
DGENRE=
TTITLE0=Feel So Fine
TTITLE1=Home Is Any Honky-Tonk
TTITLE2=Ghost Town
TTITLE3=El Camino
TTITLE4=Black And White
TTITLE5=Somewhere Down The Line
TTITLE6=Mysterious Ways
TTITLE7=Still Feelin' Blue
TTITLE8=French Quarter Blues
TTITLE9=Look No Further
TTITLE10=Ever Be Sweeter
TTITLE11=Sportin' Life
EXTD=
EXTT0=
EXTT1=
EXTT2=
EXTT3=
EXTT4=
EXTT5=
EXTT6=
EXTT7=
EXTT8=
EXTT9=
EXTT10=
EXTT11=
PLAYORDER=
